<svg width="77" height="77" viewBox="0 0 77 77" fill="none" xmlns="http://www.w3.org/2000/svg">
<rect width="77" height="77" fill="white" fill-opacity="0.1"/>
<path d="M22.504 63.216C21.936 63.216 21.42 63.096 20.956 62.856C20.492 62.616 20.124 62.26 19.852 61.788C19.588 61.316 19.456 60.728 19.456 60.024V59.724H20.632V60.24C20.632 60.84 20.808 61.308 21.16 61.644C21.512 61.972 21.96 62.136 22.504 62.136C23.048 62.136 23.496 61.972 23.848 61.644C24.2 61.308 24.376 60.84 24.376 60.24V55.056H25.552V60.024C25.552 60.728 25.416 61.316 25.144 61.788C24.88 62.26 24.516 62.616 24.052 62.856C23.596 63.096 23.08 63.216 22.504 63.216ZM20.608 55.296V54.24H25.552V55.296H20.608ZM29.9998 63.192C29.2398 63.192 28.6558 62.944 28.2478 62.448C27.8398 61.952 27.6358 61.236 27.6358 60.3V56.58H28.7878V60.528C28.7878 61.032 28.9238 61.428 29.1958 61.716C29.4678 61.996 29.8358 62.136 30.2998 62.136C30.7798 62.136 31.1718 61.984 31.4758 61.68C31.7798 61.368 31.9318 60.944 31.9318 60.408V56.58H33.0838V63H32.1718V60.252H32.3158C32.3158 60.884 32.2318 61.42 32.0638 61.86C31.8958 62.292 31.6438 62.624 31.3078 62.856C30.9798 63.08 30.5598 63.192 30.0478 63.192H29.9998ZM35.3149 63V56.592H36.2269V59.232H36.1789C36.1789 58.296 36.3829 57.612 36.7909 57.18C37.2069 56.74 37.8269 56.52 38.6509 56.52H38.8669V57.552H38.4589C37.8189 57.552 37.3269 57.724 36.9829 58.068C36.6389 58.404 36.4669 58.892 36.4669 59.532V63H35.3149ZM40.2368 63V56.592H41.1488V59.34H41.0048C41.0048 58.708 41.0888 58.176 41.2568 57.744C41.4328 57.304 41.6968 56.972 42.0488 56.748C42.4008 56.516 42.8448 56.4 43.3808 56.4H43.4288C44.2368 56.4 44.8328 56.652 45.2168 57.156C45.6088 57.66 45.8048 58.388 45.8048 59.34V63H44.6528V59.1C44.6528 58.604 44.5128 58.208 44.2328 57.912C43.9528 57.608 43.5688 57.456 43.0808 57.456C42.5768 57.456 42.1688 57.612 41.8568 57.924C41.5448 58.236 41.3888 58.652 41.3888 59.172V63H40.2368ZM51.7886 63V61.08H51.5966V58.86C51.5966 58.42 51.4806 58.088 51.2486 57.864C51.0246 57.64 50.6926 57.528 50.2526 57.528C50.0046 57.528 49.7486 57.532 49.4846 57.54C49.2206 57.548 48.9686 57.556 48.7286 57.564C48.4886 57.572 48.2806 57.584 48.1046 57.6V56.592C48.2806 56.576 48.4646 56.564 48.6566 56.556C48.8566 56.54 49.0606 56.532 49.2686 56.532C49.4766 56.524 49.6766 56.52 49.8686 56.52C50.5246 56.52 51.0606 56.6 51.4766 56.76C51.8926 56.912 52.2006 57.164 52.4006 57.516C52.6006 57.868 52.7006 58.344 52.7006 58.944V63H51.7886ZM49.6886 63.168C49.2086 63.168 48.7926 63.088 48.4406 62.928C48.0966 62.76 47.8286 62.52 47.6366 62.208C47.4526 61.896 47.3606 61.52 47.3606 61.08C47.3606 60.624 47.4606 60.244 47.6606 59.94C47.8686 59.636 48.1686 59.408 48.5606 59.256C48.9526 59.096 49.4246 59.016 49.9766 59.016H51.7166V59.88H49.9286C49.4646 59.88 49.1086 59.992 48.8606 60.216C48.6126 60.44 48.4886 60.728 48.4886 61.08C48.4886 61.432 48.6126 61.716 48.8606 61.932C49.1086 62.148 49.4646 62.256 49.9286 62.256C50.2006 62.256 50.4606 62.208 50.7086 62.112C50.9566 62.008 51.1606 61.84 51.3206 61.608C51.4886 61.368 51.5806 61.04 51.5966 60.624L51.9086 61.08C51.8686 61.536 51.7566 61.92 51.5726 62.232C51.3966 62.536 51.1486 62.768 50.8286 62.928C50.5166 63.088 50.1366 63.168 49.6886 63.168ZM54.8869 63V54.24H56.0389V63H54.8869ZM53.9989 55.152V54.24H56.0389V55.152H53.9989Z" fill="#A29F9F"/>
<path fill-rule="evenodd" clip-rule="evenodd" d="M41.7813 14.6458C41.7813 14.4445 41.6181 14.2812 41.4167 14.2812H31.2084C28.9935 14.2812 27.198 16.0768 27.198 18.2917V38.7083C27.198 40.9232 28.9935 42.7188 31.2084 42.7188H45.7917C48.0066 42.7188 49.8022 40.9232 49.8022 38.7083V24.3395C49.8022 24.1381 49.6389 23.9749 49.4376 23.9749H42.8751C42.271 23.9749 41.7813 23.4852 41.7813 22.8811V14.6458ZM42.8751 28.8646C43.4791 28.8646 43.9688 29.3543 43.9688 29.9583C43.9688 30.5624 43.4791 31.0521 42.8751 31.0521H34.1251C33.521 31.0521 33.0313 30.5624 33.0313 29.9583C33.0313 29.3543 33.521 28.8646 34.1251 28.8646H42.8751ZM42.8751 34.6979C43.4791 34.6979 43.9688 35.1876 43.9688 35.7917C43.9688 36.3957 43.4791 36.8854 42.8751 36.8854H34.1251C33.521 36.8854 33.0313 36.3957 33.0313 35.7917C33.0313 35.1876 33.521 34.6979 34.1251 34.6979H42.8751Z" fill="#BA2626"/>
<path d="M43.9688 15.1185C43.9688 14.8495 44.2498 14.6786 44.4591 14.8476C44.6354 14.99 44.7939 15.1568 44.9292 15.3452L49.3234 21.4671C49.4234 21.6065 49.3151 21.7874 49.1435 21.7874H44.3334C44.1321 21.7874 43.9688 21.6241 43.9688 21.4228V15.1185Z" fill="#BA2626"/>
</svg>
