<svg width="77" height="77" viewBox="0 0 77 77" fill="none" xmlns="http://www.w3.org/2000/svg">
<rect width="77" height="77" fill="white" fill-opacity="0.1"/>
<path d="M15.724 63L13.36 54.24H14.572L16.624 62.232L16.06 61.944H17.488L16.864 62.232L18.532 54.6H19.636L17.728 63H15.724ZM20.992 63L18.892 54.6H20.032L21.916 62.232L21.316 61.944H22.756L22.144 62.232L23.98 54.24H25.156L23.008 63H20.992ZM29.0507 63.216C28.4907 63.216 28.0067 63.12 27.5987 62.928C27.1907 62.736 26.8587 62.484 26.6027 62.172C26.3467 61.852 26.1547 61.496 26.0267 61.104C25.9067 60.712 25.8467 60.312 25.8467 59.904V59.688C25.8467 59.272 25.9067 58.868 26.0267 58.476C26.1547 58.084 26.3467 57.732 26.6027 57.42C26.8587 57.1 27.1827 56.848 27.5747 56.664C27.9747 56.472 28.4427 56.376 28.9787 56.376C29.6747 56.376 30.2467 56.528 30.6947 56.832C31.1507 57.128 31.4867 57.512 31.7027 57.984C31.9267 58.456 32.0387 58.96 32.0387 59.496V60.012H26.3507V59.148H31.1987L30.9347 59.616C30.9347 59.16 30.8627 58.768 30.7187 58.44C30.5747 58.104 30.3587 57.844 30.0707 57.66C29.7827 57.476 29.4187 57.384 28.9787 57.384C28.5227 57.384 28.1427 57.488 27.8387 57.696C27.5427 57.904 27.3187 58.188 27.1667 58.548C27.0227 58.908 26.9507 59.324 26.9507 59.796C26.9507 60.252 27.0227 60.664 27.1667 61.032C27.3187 61.392 27.5507 61.68 27.8627 61.896C28.1747 62.104 28.5707 62.208 29.0507 62.208C29.5547 62.208 29.9627 62.096 30.2747 61.872C30.5947 61.648 30.7867 61.388 30.8507 61.092H31.9307C31.8427 61.532 31.6667 61.912 31.4027 62.232C31.1387 62.552 30.8067 62.796 30.4067 62.964C30.0067 63.132 29.5547 63.216 29.0507 63.216ZM37.0583 63.216C36.5303 63.216 36.0583 63.1 35.6423 62.868C35.2343 62.636 34.9103 62.3 34.6703 61.86C34.4303 61.412 34.2983 60.876 34.2743 60.252H34.5863V63H33.6743V54.24H34.8263V58.5L34.4183 59.376C34.4503 58.68 34.5903 58.112 34.8383 57.672C35.0863 57.232 35.4103 56.908 35.8103 56.7C36.2183 56.484 36.6663 56.376 37.1543 56.376C37.6103 56.376 38.0263 56.464 38.4023 56.64C38.7783 56.808 39.1023 57.044 39.3743 57.348C39.6463 57.644 39.8543 57.992 39.9983 58.392C40.1423 58.784 40.2143 59.208 40.2143 59.664V59.88C40.2143 60.336 40.1383 60.764 39.9863 61.164C39.8423 61.564 39.6303 61.92 39.3503 62.232C39.0703 62.536 38.7343 62.776 38.3423 62.952C37.9583 63.128 37.5303 63.216 37.0583 63.216ZM36.9263 62.208C37.3583 62.208 37.7343 62.104 38.0543 61.896C38.3743 61.688 38.6223 61.404 38.7983 61.044C38.9743 60.676 39.0623 60.252 39.0623 59.772C39.0623 59.292 38.9703 58.872 38.7863 58.512C38.6103 58.152 38.3623 57.876 38.0423 57.684C37.7223 57.484 37.3503 57.384 36.9263 57.384C36.5423 57.384 36.1863 57.472 35.8583 57.648C35.5303 57.816 35.2663 58.064 35.0663 58.392C34.8743 58.712 34.7783 59.1 34.7783 59.556V60.108C34.7783 60.548 34.8783 60.924 35.0783 61.236C35.2783 61.548 35.5423 61.788 35.8703 61.956C36.1983 62.124 36.5503 62.208 36.9263 62.208ZM44.0478 63.192C43.2078 63.192 42.5558 63.012 42.0918 62.652C41.6358 62.292 41.3998 61.8 41.3838 61.176H42.4638C42.4798 61.424 42.6038 61.66 42.8358 61.884C43.0758 62.1 43.4798 62.208 44.0478 62.208C44.5598 62.208 44.9518 62.108 45.2238 61.908C45.4958 61.7 45.6318 61.448 45.6318 61.152C45.6318 60.888 45.5318 60.684 45.3318 60.54C45.1318 60.388 44.8078 60.288 44.3598 60.24L43.6638 60.168C43.0558 60.104 42.5598 59.924 42.1758 59.628C41.7918 59.324 41.5998 58.9 41.5998 58.356C41.5998 57.948 41.7038 57.6 41.9118 57.312C42.1198 57.016 42.4078 56.792 42.7758 56.64C43.1438 56.48 43.5678 56.4 44.0478 56.4C44.7678 56.4 45.3518 56.56 45.7998 56.88C46.2478 57.2 46.4798 57.676 46.4958 58.308H45.4158C45.4078 58.052 45.2878 57.836 45.0558 57.66C44.8318 57.476 44.4958 57.384 44.0478 57.384C43.5998 57.384 43.2598 57.476 43.0278 57.66C42.7958 57.844 42.6798 58.076 42.6798 58.356C42.6798 58.596 42.7598 58.788 42.9198 58.932C43.0878 59.076 43.3598 59.168 43.7358 59.208L44.4318 59.28C45.1198 59.352 45.6718 59.544 46.0878 59.856C46.5038 60.16 46.7118 60.592 46.7118 61.152C46.7118 61.552 46.5958 61.908 46.3638 62.22C46.1398 62.524 45.8278 62.764 45.4278 62.94C45.0278 63.108 44.5678 63.192 44.0478 63.192ZM48.6933 63V56.592H49.8453V63H48.6933ZM47.7093 57.504V56.592H49.8453V57.504H47.7093ZM49.0173 55.56C48.7613 55.56 48.5693 55.492 48.4413 55.356C48.3213 55.22 48.2613 55.048 48.2613 54.84C48.2613 54.632 48.3213 54.46 48.4413 54.324C48.5693 54.188 48.7613 54.12 49.0173 54.12C49.2733 54.12 49.4613 54.188 49.5813 54.324C49.7093 54.46 49.7733 54.632 49.7733 54.84C49.7733 55.048 49.7093 55.22 49.5813 55.356C49.4613 55.492 49.2733 55.56 49.0173 55.56ZM54.5688 63.072C54.0888 63.072 53.6728 63.004 53.3208 62.868C52.9768 62.732 52.7088 62.5 52.5168 62.172C52.3328 61.836 52.2408 61.384 52.2408 60.816V54.648H53.3448V60.96C53.3448 61.304 53.4368 61.572 53.6208 61.764C53.8128 61.948 54.0808 62.04 54.4248 62.04H55.5528V63.072H54.5688ZM51.1368 57.456V56.592H55.5528V57.456H51.1368ZM59.8593 63.216C59.2993 63.216 58.8153 63.12 58.4073 62.928C57.9993 62.736 57.6673 62.484 57.4113 62.172C57.1553 61.852 56.9633 61.496 56.8353 61.104C56.7153 60.712 56.6553 60.312 56.6553 59.904V59.688C56.6553 59.272 56.7153 58.868 56.8353 58.476C56.9633 58.084 57.1553 57.732 57.4113 57.42C57.6673 57.1 57.9913 56.848 58.3833 56.664C58.7833 56.472 59.2513 56.376 59.7873 56.376C60.4833 56.376 61.0553 56.528 61.5033 56.832C61.9593 57.128 62.2953 57.512 62.5113 57.984C62.7353 58.456 62.8473 58.96 62.8473 59.496V60.012H57.1593V59.148H62.0073L61.7433 59.616C61.7433 59.16 61.6713 58.768 61.5273 58.44C61.3833 58.104 61.1673 57.844 60.8793 57.66C60.5913 57.476 60.2273 57.384 59.7873 57.384C59.3313 57.384 58.9513 57.488 58.6473 57.696C58.3513 57.904 58.1273 58.188 57.9753 58.548C57.8313 58.908 57.7593 59.324 57.7593 59.796C57.7593 60.252 57.8313 60.664 57.9753 61.032C58.1273 61.392 58.3593 61.68 58.6713 61.896C58.9833 62.104 59.3793 62.208 59.8593 62.208C60.3633 62.208 60.7713 62.096 61.0833 61.872C61.4033 61.648 61.5953 61.388 61.6593 61.092H62.7393C62.6513 61.532 62.4753 61.912 62.2113 62.232C61.9473 62.552 61.6153 62.796 61.2153 62.964C60.8153 63.132 60.3633 63.216 59.8593 63.216Z" fill="#A29F9F"/>
<path d="M52.223 23.6C52.223 23.6 52.223 23.6 52.223 23.5271C51.1955 20.7216 49.331 18.2994 46.8818 16.5882C44.4327 14.8769 41.517 13.9592 38.5292 13.9592C35.5415 13.9592 32.6258 14.8769 30.1767 16.5882C27.7275 18.2994 25.863 20.7216 24.8355 23.5271C24.8355 23.5271 24.8355 23.5271 24.8355 23.6C23.688 26.7659 23.688 30.2341 24.8355 33.4C24.8355 33.4 24.8355 33.4 24.8355 33.4729C25.863 36.2784 27.7275 38.7006 30.1767 40.4119C32.6258 42.1231 35.5415 43.0408 38.5292 43.0408C41.517 43.0408 44.4327 42.1231 46.8818 40.4119C49.331 38.7006 51.1955 36.2784 52.223 33.4729C52.223 33.4729 52.223 33.4729 52.223 33.4C53.3705 30.2341 53.3705 26.7659 52.223 23.6V23.6ZM27.2126 31.4167C26.7069 29.5051 26.7069 27.4949 27.2126 25.5834H29.9251C29.6918 27.5208 29.6918 29.4792 29.9251 31.4167H27.2126ZM28.4084 34.3334H30.4501C30.7924 35.634 31.2816 36.8914 31.9084 38.0813C30.4782 37.107 29.2827 35.8268 28.4084 34.3334ZM30.4501 22.6667H28.4084C29.2701 21.1779 30.4504 19.898 31.8647 18.9188C31.253 20.1106 30.7784 21.3679 30.4501 22.6667V22.6667ZM37.0417 39.7292C35.2506 38.4148 33.9926 36.4993 33.498 34.3334H37.0417V39.7292ZM37.0417 31.4167H32.8709C32.5988 29.4818 32.5988 27.5183 32.8709 25.5834H37.0417V31.4167ZM37.0417 22.6667H33.498C33.9926 20.5007 35.2506 18.5853 37.0417 17.2709V22.6667ZM48.5917 22.6667H46.5501C46.2078 21.3661 45.7185 20.1087 45.0917 18.9188C46.5219 19.893 47.7175 21.1733 48.5917 22.6667ZM39.9584 17.2709C41.7496 18.5853 43.0076 20.5007 43.5022 22.6667H39.9584V17.2709ZM39.9584 39.7292V34.3334H43.5022C43.0076 36.4993 41.7496 38.4148 39.9584 39.7292V39.7292ZM44.1292 31.4167H39.9584V25.5834H44.1292C44.4014 27.5183 44.4014 29.4818 44.1292 31.4167ZM45.1355 38.0813C45.7623 36.8914 46.2515 35.634 46.5938 34.3334H48.6355C47.7612 35.8268 46.5657 37.107 45.1355 38.0813ZM49.7876 31.4167H47.0751C47.1937 30.449 47.2521 29.4749 47.2501 28.5C47.2517 27.5251 47.1932 26.5511 47.0751 25.5834H49.7876C50.2933 27.4949 50.2933 29.5051 49.7876 31.4167Z" fill="#BA2626"/>
</svg>
