<svg width="51" height="55" viewBox="0 0 51 55" fill="none" xmlns="http://www.w3.org/2000/svg">
<path d="M2.724 52L0.36 43.24H1.572L3.624 51.232L3.06 50.944H4.488L3.864 51.232L5.532 43.6H6.636L4.728 52H2.724ZM7.992 52L5.892 43.6H7.032L8.916 51.232L8.316 50.944H9.756L9.144 51.232L10.98 43.24H12.156L10.008 52H7.992ZM16.0507 52.216C15.4907 52.216 15.0067 52.12 14.5987 51.928C14.1907 51.736 13.8587 51.484 13.6027 51.172C13.3467 50.852 13.1547 50.496 13.0267 50.104C12.9067 49.712 12.8467 49.312 12.8467 48.904V48.688C12.8467 48.272 12.9067 47.868 13.0267 47.476C13.1547 47.084 13.3467 46.732 13.6027 46.42C13.8587 46.1 14.1827 45.848 14.5747 45.664C14.9747 45.472 15.4427 45.376 15.9787 45.376C16.6747 45.376 17.2467 45.528 17.6947 45.832C18.1507 46.128 18.4867 46.512 18.7027 46.984C18.9267 47.456 19.0387 47.96 19.0387 48.496V49.012H13.3507V48.148H18.1987L17.9347 48.616C17.9347 48.16 17.8627 47.768 17.7187 47.44C17.5747 47.104 17.3587 46.844 17.0707 46.66C16.7827 46.476 16.4187 46.384 15.9787 46.384C15.5227 46.384 15.1427 46.488 14.8387 46.696C14.5427 46.904 14.3187 47.188 14.1667 47.548C14.0227 47.908 13.9507 48.324 13.9507 48.796C13.9507 49.252 14.0227 49.664 14.1667 50.032C14.3187 50.392 14.5507 50.68 14.8627 50.896C15.1747 51.104 15.5707 51.208 16.0507 51.208C16.5547 51.208 16.9627 51.096 17.2747 50.872C17.5947 50.648 17.7867 50.388 17.8507 50.092H18.9307C18.8427 50.532 18.6667 50.912 18.4027 51.232C18.1387 51.552 17.8067 51.796 17.4067 51.964C17.0067 52.132 16.5547 52.216 16.0507 52.216ZM24.0583 52.216C23.5303 52.216 23.0583 52.1 22.6423 51.868C22.2343 51.636 21.9103 51.3 21.6703 50.86C21.4303 50.412 21.2983 49.876 21.2743 49.252H21.5863V52H20.6743V43.24H21.8263V47.5L21.4183 48.376C21.4503 47.68 21.5903 47.112 21.8383 46.672C22.0863 46.232 22.4103 45.908 22.8103 45.7C23.2183 45.484 23.6663 45.376 24.1543 45.376C24.6103 45.376 25.0263 45.464 25.4023 45.64C25.7783 45.808 26.1023 46.044 26.3743 46.348C26.6463 46.644 26.8543 46.992 26.9983 47.392C27.1423 47.784 27.2143 48.208 27.2143 48.664V48.88C27.2143 49.336 27.1383 49.764 26.9863 50.164C26.8423 50.564 26.6303 50.92 26.3503 51.232C26.0703 51.536 25.7343 51.776 25.3423 51.952C24.9583 52.128 24.5303 52.216 24.0583 52.216ZM23.9263 51.208C24.3583 51.208 24.7343 51.104 25.0543 50.896C25.3743 50.688 25.6223 50.404 25.7983 50.044C25.9743 49.676 26.0623 49.252 26.0623 48.772C26.0623 48.292 25.9703 47.872 25.7863 47.512C25.6103 47.152 25.3623 46.876 25.0423 46.684C24.7223 46.484 24.3503 46.384 23.9263 46.384C23.5423 46.384 23.1863 46.472 22.8583 46.648C22.5303 46.816 22.2663 47.064 22.0663 47.392C21.8743 47.712 21.7783 48.1 21.7783 48.556V49.108C21.7783 49.548 21.8783 49.924 22.0783 50.236C22.2783 50.548 22.5423 50.788 22.8703 50.956C23.1983 51.124 23.5503 51.208 23.9263 51.208ZM31.0478 52.192C30.2078 52.192 29.5558 52.012 29.0918 51.652C28.6358 51.292 28.3998 50.8 28.3838 50.176H29.4638C29.4798 50.424 29.6038 50.66 29.8358 50.884C30.0758 51.1 30.4798 51.208 31.0478 51.208C31.5598 51.208 31.9518 51.108 32.2238 50.908C32.4958 50.7 32.6318 50.448 32.6318 50.152C32.6318 49.888 32.5318 49.684 32.3318 49.54C32.1318 49.388 31.8078 49.288 31.3598 49.24L30.6638 49.168C30.0558 49.104 29.5598 48.924 29.1758 48.628C28.7918 48.324 28.5998 47.9 28.5998 47.356C28.5998 46.948 28.7038 46.6 28.9118 46.312C29.1198 46.016 29.4078 45.792 29.7758 45.64C30.1438 45.48 30.5678 45.4 31.0478 45.4C31.7678 45.4 32.3518 45.56 32.7998 45.88C33.2478 46.2 33.4798 46.676 33.4958 47.308H32.4158C32.4078 47.052 32.2878 46.836 32.0558 46.66C31.8318 46.476 31.4958 46.384 31.0478 46.384C30.5998 46.384 30.2598 46.476 30.0278 46.66C29.7958 46.844 29.6798 47.076 29.6798 47.356C29.6798 47.596 29.7598 47.788 29.9198 47.932C30.0878 48.076 30.3598 48.168 30.7358 48.208L31.4318 48.28C32.1198 48.352 32.6718 48.544 33.0878 48.856C33.5038 49.16 33.7118 49.592 33.7118 50.152C33.7118 50.552 33.5958 50.908 33.3638 51.22C33.1398 51.524 32.8278 51.764 32.4278 51.94C32.0278 52.108 31.5678 52.192 31.0478 52.192ZM35.6933 52V45.592H36.8453V52H35.6933ZM34.7093 46.504V45.592H36.8453V46.504H34.7093ZM36.0173 44.56C35.7613 44.56 35.5693 44.492 35.4413 44.356C35.3213 44.22 35.2613 44.048 35.2613 43.84C35.2613 43.632 35.3213 43.46 35.4413 43.324C35.5693 43.188 35.7613 43.12 36.0173 43.12C36.2733 43.12 36.4613 43.188 36.5813 43.324C36.7093 43.46 36.7733 43.632 36.7733 43.84C36.7733 44.048 36.7093 44.22 36.5813 44.356C36.4613 44.492 36.2733 44.56 36.0173 44.56ZM41.5688 52.072C41.0888 52.072 40.6728 52.004 40.3208 51.868C39.9768 51.732 39.7088 51.5 39.5168 51.172C39.3328 50.836 39.2408 50.384 39.2408 49.816V43.648H40.3448V49.96C40.3448 50.304 40.4368 50.572 40.6208 50.764C40.8128 50.948 41.0808 51.04 41.4248 51.04H42.5528V52.072H41.5688ZM38.1368 46.456V45.592H42.5528V46.456H38.1368ZM46.8593 52.216C46.2993 52.216 45.8153 52.12 45.4073 51.928C44.9993 51.736 44.6673 51.484 44.4113 51.172C44.1553 50.852 43.9633 50.496 43.8353 50.104C43.7153 49.712 43.6553 49.312 43.6553 48.904V48.688C43.6553 48.272 43.7153 47.868 43.8353 47.476C43.9633 47.084 44.1553 46.732 44.4113 46.42C44.6673 46.1 44.9913 45.848 45.3833 45.664C45.7833 45.472 46.2513 45.376 46.7873 45.376C47.4833 45.376 48.0553 45.528 48.5033 45.832C48.9593 46.128 49.2953 46.512 49.5113 46.984C49.7353 47.456 49.8473 47.96 49.8473 48.496V49.012H44.1593V48.148H49.0073L48.7433 48.616C48.7433 48.16 48.6713 47.768 48.5273 47.44C48.3833 47.104 48.1673 46.844 47.8793 46.66C47.5913 46.476 47.2273 46.384 46.7873 46.384C46.3313 46.384 45.9513 46.488 45.6473 46.696C45.3513 46.904 45.1273 47.188 44.9753 47.548C44.8313 47.908 44.7593 48.324 44.7593 48.796C44.7593 49.252 44.8313 49.664 44.9753 50.032C45.1273 50.392 45.3593 50.68 45.6713 50.896C45.9833 51.104 46.3793 51.208 46.8593 51.208C47.3633 51.208 47.7713 51.096 48.0833 50.872C48.4033 50.648 48.5953 50.388 48.6593 50.092H49.7393C49.6513 50.532 49.4753 50.912 49.2113 51.232C48.9473 51.552 48.6153 51.796 48.2153 51.964C47.8153 52.132 47.3633 52.216 46.8593 52.216Z" fill="#A29F9F"/>
<path d="M39.2229 12.6C39.2229 12.6 39.2229 12.6 39.2229 12.5271C38.1954 9.7216 36.3309 7.29939 33.8817 5.58815C31.4326 3.87692 28.5169 2.95923 25.5292 2.95923C22.5414 2.95923 19.6257 3.87692 17.1766 5.58815C14.7274 7.29939 12.8629 9.7216 11.8354 12.5271C11.8354 12.5271 11.8354 12.5271 11.8354 12.6C10.6879 15.7659 10.6879 19.2341 11.8354 22.4C11.8354 22.4 11.8354 22.4 11.8354 22.4729C12.8629 25.2784 14.7274 27.7006 17.1766 29.4119C19.6257 31.1231 22.5414 32.0408 25.5292 32.0408C28.5169 32.0408 31.4326 31.1231 33.8817 29.4119C36.3309 27.7006 38.1954 25.2784 39.2229 22.4729C39.2229 22.4729 39.2229 22.4729 39.2229 22.4C40.3704 19.2341 40.3704 15.7659 39.2229 12.6V12.6ZM14.2125 20.4167C13.7068 18.5051 13.7068 16.4949 14.2125 14.5834H16.925C16.6917 16.5208 16.6917 18.4792 16.925 20.4167H14.2125ZM15.4083 23.3334H17.45C17.7923 24.634 18.2816 25.8914 18.9083 27.0813C17.4781 26.107 16.2826 24.8268 15.4083 23.3334ZM17.45 11.6667H15.4083C16.27 10.1779 17.4503 8.89799 18.8646 7.91877C18.2529 9.11058 17.7783 10.3679 17.45 11.6667V11.6667ZM24.0417 28.7292C22.2505 27.4148 20.9925 25.4993 20.4979 23.3334H24.0417V28.7292ZM24.0417 20.4167H19.8708C19.5987 18.4818 19.5987 16.5183 19.8708 14.5834H24.0417V20.4167ZM24.0417 11.6667H20.4979C20.9925 9.50072 22.2505 7.58528 24.0417 6.27085V11.6667ZM35.5917 11.6667H33.55C33.2077 10.3661 32.7184 9.10868 32.0917 7.91877C33.5218 8.89304 34.7174 10.1733 35.5917 11.6667ZM26.9583 6.27085C28.7495 7.58528 30.0075 9.50072 30.5021 11.6667H26.9583V6.27085ZM26.9583 28.7292V23.3334H30.5021C30.0075 25.4993 28.7495 27.4148 26.9583 28.7292V28.7292ZM31.1292 20.4167H26.9583V14.5834H31.1292C31.4013 16.5183 31.4013 18.4818 31.1292 20.4167ZM32.1354 27.0813C32.7622 25.8914 33.2514 24.634 33.5937 23.3334H35.6354C34.7611 24.8268 33.5656 26.107 32.1354 27.0813ZM36.7875 20.4167H34.075C34.1936 19.449 34.252 18.4749 34.25 17.5C34.2516 16.5251 34.1932 15.5511 34.075 14.5834H36.7875C37.2932 16.4949 37.2932 18.5051 36.7875 20.4167Z" fill="#BA2626"/>
</svg>
