<svg width="70" height="55" viewBox="0 0 70 55" fill="none" xmlns="http://www.w3.org/2000/svg">
<path d="M1.272 52V43.24H2.832L5.424 49.084H5.616L8.196 43.24H9.768V52H8.592V44.524L8.676 44.548L6.192 50.188H4.752L2.256 44.548L2.352 44.524V52H1.272ZM16.0191 52V50.08H15.8271V47.86C15.8271 47.42 15.7111 47.088 15.4791 46.864C15.2551 46.64 14.9231 46.528 14.4831 46.528C14.2351 46.528 13.9791 46.532 13.7151 46.54C13.4511 46.548 13.1991 46.556 12.9591 46.564C12.7191 46.572 12.5111 46.584 12.3351 46.6V45.592C12.5111 45.576 12.6951 45.564 12.8871 45.556C13.0871 45.54 13.2911 45.532 13.4991 45.532C13.7071 45.524 13.9071 45.52 14.0991 45.52C14.7551 45.52 15.2911 45.6 15.7071 45.76C16.1231 45.912 16.4311 46.164 16.6311 46.516C16.8311 46.868 16.9311 47.344 16.9311 47.944V52H16.0191ZM13.9191 52.168C13.4391 52.168 13.0231 52.088 12.6711 51.928C12.3271 51.76 12.0591 51.52 11.8671 51.208C11.6831 50.896 11.5911 50.52 11.5911 50.08C11.5911 49.624 11.6911 49.244 11.8911 48.94C12.0991 48.636 12.3991 48.408 12.7911 48.256C13.1831 48.096 13.6551 48.016 14.2071 48.016H15.9471V48.88H14.1591C13.6951 48.88 13.3391 48.992 13.0911 49.216C12.8431 49.44 12.7191 49.728 12.7191 50.08C12.7191 50.432 12.8431 50.716 13.0911 50.932C13.3391 51.148 13.6951 51.256 14.1591 51.256C14.4311 51.256 14.6911 51.208 14.9391 51.112C15.1871 51.008 15.3911 50.84 15.5511 50.608C15.7191 50.368 15.8111 50.04 15.8271 49.624L16.1391 50.08C16.0991 50.536 15.9871 50.92 15.8031 51.232C15.6271 51.536 15.3791 51.768 15.0591 51.928C14.7471 52.088 14.3671 52.168 13.9191 52.168ZM21.5414 52.072C21.0614 52.072 20.6454 52.004 20.2934 51.868C19.9494 51.732 19.6814 51.5 19.4894 51.172C19.3054 50.836 19.2134 50.384 19.2134 49.816V43.648H20.3174V49.96C20.3174 50.304 20.4094 50.572 20.5934 50.764C20.7854 50.948 21.0534 51.04 21.3974 51.04H22.5254V52.072H21.5414ZM18.1094 46.456V45.592H22.5254V46.456H18.1094ZM28.0073 52V50.08H27.8153V47.86C27.8153 47.42 27.6993 47.088 27.4673 46.864C27.2433 46.64 26.9113 46.528 26.4713 46.528C26.2233 46.528 25.9673 46.532 25.7033 46.54C25.4393 46.548 25.1873 46.556 24.9473 46.564C24.7073 46.572 24.4993 46.584 24.3233 46.6V45.592C24.4993 45.576 24.6833 45.564 24.8753 45.556C25.0753 45.54 25.2793 45.532 25.4873 45.532C25.6953 45.524 25.8953 45.52 26.0873 45.52C26.7433 45.52 27.2793 45.6 27.6953 45.76C28.1113 45.912 28.4193 46.164 28.6193 46.516C28.8193 46.868 28.9193 47.344 28.9193 47.944V52H28.0073ZM25.9073 52.168C25.4273 52.168 25.0113 52.088 24.6593 51.928C24.3153 51.76 24.0473 51.52 23.8553 51.208C23.6713 50.896 23.5793 50.52 23.5793 50.08C23.5793 49.624 23.6793 49.244 23.8793 48.94C24.0873 48.636 24.3873 48.408 24.7793 48.256C25.1713 48.096 25.6433 48.016 26.1953 48.016H27.9353V48.88H26.1473C25.6833 48.88 25.3273 48.992 25.0793 49.216C24.8313 49.44 24.7073 49.728 24.7073 50.08C24.7073 50.432 24.8313 50.716 25.0793 50.932C25.3273 51.148 25.6833 51.256 26.1473 51.256C26.4193 51.256 26.6793 51.208 26.9273 51.112C27.1753 51.008 27.3793 50.84 27.5393 50.608C27.7073 50.368 27.7993 50.04 27.8153 49.624L28.1273 50.08C28.0873 50.536 27.9753 50.92 27.7913 51.232C27.6153 51.536 27.3673 51.768 27.0473 51.928C26.7353 52.088 26.3553 52.168 25.9073 52.168ZM39.4522 52L35.8882 47.908H34.6042L38.6722 43.24H40.0162L36.3202 47.464L36.2122 46.636L40.9162 52H39.4522ZM33.9322 52V43.24H35.1082V52H33.9322ZM43.9763 52.192C43.2163 52.192 42.6323 51.944 42.2243 51.448C41.8163 50.952 41.6123 50.236 41.6123 49.3V45.58H42.7643V49.528C42.7643 50.032 42.9003 50.428 43.1723 50.716C43.4443 50.996 43.8123 51.136 44.2763 51.136C44.7563 51.136 45.1483 50.984 45.4523 50.68C45.7563 50.368 45.9083 49.944 45.9083 49.408V45.58H47.0603V52H46.1483V49.252H46.2923C46.2923 49.884 46.2083 50.42 46.0403 50.86C45.8723 51.292 45.6203 51.624 45.2843 51.856C44.9563 52.08 44.5363 52.192 44.0243 52.192H43.9763ZM49.3635 52V43.24H50.5155V52H49.3635ZM48.4755 44.152V43.24H50.5155V44.152H48.4755ZM53.0371 52V45.592H54.1891V52H53.0371ZM52.0531 46.504V45.592H54.1891V46.504H52.0531ZM53.3611 44.56C53.1051 44.56 52.9131 44.492 52.7851 44.356C52.6651 44.22 52.6051 44.048 52.6051 43.84C52.6051 43.632 52.6651 43.46 52.7851 43.324C52.9131 43.188 53.1051 43.12 53.3611 43.12C53.6171 43.12 53.8051 43.188 53.9251 43.324C54.0531 43.46 54.1171 43.632 54.1171 43.84C54.1171 44.048 54.0531 44.22 53.9251 44.356C53.8051 44.492 53.6171 44.56 53.3611 44.56ZM60.2925 52V50.08H60.1005V47.86C60.1005 47.42 59.9845 47.088 59.7525 46.864C59.5285 46.64 59.1965 46.528 58.7565 46.528C58.5085 46.528 58.2525 46.532 57.9885 46.54C57.7245 46.548 57.4725 46.556 57.2325 46.564C56.9925 46.572 56.7845 46.584 56.6085 46.6V45.592C56.7845 45.576 56.9685 45.564 57.1605 45.556C57.3605 45.54 57.5645 45.532 57.7725 45.532C57.9805 45.524 58.1805 45.52 58.3725 45.52C59.0285 45.52 59.5645 45.6 59.9805 45.76C60.3965 45.912 60.7045 46.164 60.9045 46.516C61.1045 46.868 61.2045 47.344 61.2045 47.944V52H60.2925ZM58.1925 52.168C57.7125 52.168 57.2965 52.088 56.9445 51.928C56.6005 51.76 56.3325 51.52 56.1405 51.208C55.9565 50.896 55.8645 50.52 55.8645 50.08C55.8645 49.624 55.9645 49.244 56.1645 48.94C56.3725 48.636 56.6725 48.408 57.0645 48.256C57.4565 48.096 57.9285 48.016 58.4805 48.016H60.2205V48.88H58.4325C57.9685 48.88 57.6125 48.992 57.3645 49.216C57.1165 49.44 56.9925 49.728 56.9925 50.08C56.9925 50.432 57.1165 50.716 57.3645 50.932C57.6125 51.148 57.9685 51.256 58.4325 51.256C58.7045 51.256 58.9645 51.208 59.2125 51.112C59.4605 51.008 59.6645 50.84 59.8245 50.608C59.9925 50.368 60.0845 50.04 60.1005 49.624L60.4125 50.08C60.3725 50.536 60.2605 50.92 60.0765 51.232C59.9005 51.536 59.6525 51.768 59.3325 51.928C59.0205 52.088 58.6405 52.168 58.1925 52.168ZM63.3188 52V43.24H64.4708V48.472H64.1828C64.1828 47.84 64.2628 47.296 64.4228 46.84C64.5908 46.376 64.8468 46.02 65.1908 45.772C65.5348 45.524 65.9748 45.4 66.5108 45.4H66.5588C67.3268 45.4 67.9068 45.656 68.2988 46.168C68.6908 46.672 68.8868 47.396 68.8868 48.34V52H67.7348V48.1C67.7348 47.58 67.5868 47.176 67.2908 46.888C67.0028 46.6 66.6268 46.456 66.1628 46.456C65.6508 46.456 65.2388 46.628 64.9268 46.972C64.6228 47.308 64.4708 47.752 64.4708 48.304V52H63.3188Z" fill="#A29F9F"/>
<path fill-rule="evenodd" clip-rule="evenodd" d="M33.756 5.99495C29.6717 3.54434 24.6765 3.14409 20.254 4.91307C19.6099 5.17073 19.1875 5.7946 19.1875 6.48836V23.4909C19.1875 24.6298 20.3378 25.4086 21.3952 24.9856C25.0168 23.537 29.1073 23.8647 32.452 25.8715L34.1076 26.8649C34.2338 26.9407 34.3689 26.9738 34.5 26.9715C34.6311 26.9738 34.7662 26.9407 34.8924 26.8649L36.548 25.8715C39.8927 23.8647 43.9832 23.537 47.6048 24.9856C48.6622 25.4086 49.8125 24.6298 49.8125 23.4909V6.48836C49.8125 5.7946 49.3901 5.17073 48.746 4.91307C44.3235 3.14409 39.3283 3.54434 35.244 5.99495L34.5 6.44134L33.756 5.99495ZM35.5938 9.47919C35.5938 8.87512 35.1041 8.38544 34.5 8.38544C33.8959 8.38544 33.4062 8.87512 33.4062 9.47919V23.3334C33.4062 23.9374 33.8959 24.4271 34.5 24.4271C35.1041 24.4271 35.5938 23.9374 35.5938 23.3334V9.47919Z" fill="#BA2626"/>
<path d="M20.9737 27.7699C23.9252 26.0483 27.5748 26.0483 30.5263 27.7699L32.1119 28.6949C33.5876 29.5557 35.4124 29.5557 36.8881 28.6949L38.4737 27.7699C41.4252 26.0483 45.0748 26.0483 48.0263 27.7699L48.1761 27.8573C48.6979 28.1617 48.8741 28.8314 48.5698 29.3532C48.2654 29.875 47.5957 30.0512 47.0739 29.7469L46.9241 29.6595C44.6537 28.3351 41.8463 28.3351 39.5759 29.6595L37.9904 30.5844C35.8335 31.8425 33.1665 31.8425 31.0096 30.5844L29.4241 29.6595C27.1537 28.3351 24.3463 28.3351 22.0759 29.6595L21.9261 29.7469C21.4043 30.0512 20.7346 29.875 20.4302 29.3532C20.1259 28.8314 20.3021 28.1617 20.8239 27.8573L20.9737 27.7699Z" fill="#BA2626"/>
</svg>
