<svg width="97" height="55" viewBox="0 0 97 55" fill="none" xmlns="http://www.w3.org/2000/svg">
<path d="M5.196 52.216C4.412 52.216 3.736 52.076 3.168 51.796C2.6 51.516 2.132 51.148 1.764 50.692C1.396 50.236 1.12 49.748 0.936 49.228C0.76 48.708 0.672 48.208 0.672 47.728V47.464C0.672 46.944 0.764 46.42 0.948 45.892C1.132 45.364 1.412 44.884 1.788 44.452C2.164 44.012 2.632 43.66 3.192 43.396C3.76 43.132 4.428 43 5.196 43C5.964 43 6.628 43.132 7.188 43.396C7.756 43.66 8.228 44.012 8.604 44.452C8.98 44.884 9.26 45.364 9.444 45.892C9.628 46.42 9.72 46.944 9.72 47.464V47.728C9.72 48.208 9.628 48.708 9.444 49.228C9.268 49.748 8.996 50.236 8.628 50.692C8.26 51.148 7.792 51.516 7.224 51.796C6.656 52.076 5.98 52.216 5.196 52.216ZM5.196 51.136C5.708 51.136 6.168 51.04 6.576 50.848C6.992 50.656 7.344 50.396 7.632 50.068C7.92 49.732 8.14 49.356 8.292 48.94C8.444 48.516 8.52 48.072 8.52 47.608C8.52 47.12 8.444 46.664 8.292 46.24C8.14 45.816 7.92 45.444 7.632 45.124C7.344 44.796 6.992 44.54 6.576 44.356C6.168 44.172 5.708 44.08 5.196 44.08C4.684 44.08 4.22 44.172 3.804 44.356C3.396 44.54 3.048 44.796 2.76 45.124C2.472 45.444 2.252 45.816 2.1 46.24C1.948 46.664 1.872 47.12 1.872 47.608C1.872 48.072 1.948 48.516 2.1 48.94C2.252 49.356 2.472 49.732 2.76 50.068C3.048 50.396 3.396 50.656 3.804 50.848C4.22 51.04 4.684 51.136 5.196 51.136ZM11.6548 52V45.124C11.6548 44.412 11.8428 43.888 12.2188 43.552C12.5948 43.216 13.1468 43.048 13.8748 43.048H14.5228V44.008H13.6828C13.3868 44.008 13.1588 44.092 12.9988 44.26C12.8388 44.42 12.7588 44.644 12.7588 44.932V52H11.6548ZM15.7708 52V45.196C15.7708 44.484 15.9588 43.96 16.3348 43.624C16.7108 43.288 17.2628 43.12 17.9908 43.12H18.7108V44.08H17.7988C17.5028 44.08 17.2748 44.164 17.1148 44.332C16.9548 44.492 16.8748 44.716 16.8748 45.004V52H15.7708ZM20.1748 52V45.592H21.3268V52H20.1748ZM10.7668 46.456V45.592H18.5908V46.456H10.7668ZM19.2388 46.504V45.592H21.3268V46.504H19.2388ZM20.4988 44.56C20.2428 44.56 20.0508 44.492 19.9228 44.356C19.8028 44.22 19.7428 44.048 19.7428 43.84C19.7428 43.632 19.8028 43.46 19.9228 43.324C20.0508 43.188 20.2428 43.12 20.4988 43.12C20.7548 43.12 20.9428 43.188 21.0628 43.324C21.1908 43.46 21.2548 43.632 21.2548 43.84C21.2548 44.048 21.1908 44.22 21.0628 44.356C20.9428 44.492 20.7548 44.56 20.4988 44.56ZM26.3051 52.216C25.7531 52.216 25.2731 52.12 24.8651 51.928C24.4651 51.736 24.1331 51.48 23.8691 51.16C23.6051 50.832 23.4051 50.472 23.2691 50.08C23.1411 49.688 23.0771 49.296 23.0771 48.904V48.688C23.0771 48.28 23.1411 47.88 23.2691 47.488C23.4051 47.096 23.6051 46.744 23.8691 46.432C24.1411 46.112 24.4771 45.856 24.8771 45.664C25.2771 45.472 25.7451 45.376 26.2811 45.376C26.8171 45.376 27.2971 45.476 27.7211 45.676C28.1531 45.876 28.4971 46.16 28.7531 46.528C29.0171 46.888 29.1651 47.316 29.1971 47.812H28.0931C28.0371 47.412 27.8531 47.08 27.5411 46.816C27.2291 46.544 26.8091 46.408 26.2811 46.408C25.8251 46.408 25.4451 46.512 25.1411 46.72C24.8371 46.928 24.6091 47.212 24.4571 47.572C24.3051 47.932 24.2291 48.34 24.2291 48.796C24.2291 49.236 24.3051 49.64 24.4571 50.008C24.6091 50.368 24.8371 50.656 25.1411 50.872C25.4531 51.08 25.8411 51.184 26.3051 51.184C26.6651 51.184 26.9771 51.12 27.2411 50.992C27.5051 50.864 27.7171 50.692 27.8771 50.476C28.0371 50.26 28.1331 50.016 28.1651 49.744H29.2691C29.2451 50.248 29.0971 50.684 28.8251 51.052C28.5611 51.42 28.2091 51.708 27.7691 51.916C27.3371 52.116 26.8491 52.216 26.3051 52.216ZM31.1465 52V45.592H32.2985V52H31.1465ZM30.1625 46.504V45.592H32.2985V46.504H30.1625ZM31.4705 44.56C31.2145 44.56 31.0225 44.492 30.8945 44.356C30.7745 44.22 30.7145 44.048 30.7145 43.84C30.7145 43.632 30.7745 43.46 30.8945 43.324C31.0225 43.188 31.2145 43.12 31.4705 43.12C31.7265 43.12 31.9145 43.188 32.0345 43.324C32.1625 43.46 32.2265 43.632 32.2265 43.84C32.2265 44.048 32.1625 44.22 32.0345 44.356C31.9145 44.492 31.7265 44.56 31.4705 44.56ZM38.4019 52V50.08H38.2099V47.86C38.2099 47.42 38.0939 47.088 37.8619 46.864C37.6379 46.64 37.3059 46.528 36.8659 46.528C36.6179 46.528 36.3619 46.532 36.0979 46.54C35.8339 46.548 35.5819 46.556 35.3419 46.564C35.1019 46.572 34.8939 46.584 34.7179 46.6V45.592C34.8939 45.576 35.0779 45.564 35.2699 45.556C35.4699 45.54 35.6739 45.532 35.8819 45.532C36.0899 45.524 36.2899 45.52 36.4819 45.52C37.1379 45.52 37.6739 45.6 38.0899 45.76C38.5059 45.912 38.8139 46.164 39.0139 46.516C39.2139 46.868 39.3139 47.344 39.3139 47.944V52H38.4019ZM36.3019 52.168C35.8219 52.168 35.4059 52.088 35.0539 51.928C34.7099 51.76 34.4419 51.52 34.2499 51.208C34.0659 50.896 33.9739 50.52 33.9739 50.08C33.9739 49.624 34.0739 49.244 34.2739 48.94C34.4819 48.636 34.7819 48.408 35.1739 48.256C35.5659 48.096 36.0379 48.016 36.5899 48.016H38.3299V48.88H36.5419C36.0779 48.88 35.7219 48.992 35.4739 49.216C35.2259 49.44 35.1019 49.728 35.1019 50.08C35.1019 50.432 35.2259 50.716 35.4739 50.932C35.7219 51.148 36.0779 51.256 36.5419 51.256C36.8139 51.256 37.0739 51.208 37.3219 51.112C37.5699 51.008 37.7739 50.84 37.9339 50.608C38.1019 50.368 38.1939 50.04 38.2099 49.624L38.5219 50.08C38.4819 50.536 38.3699 50.92 38.1859 51.232C38.0099 51.536 37.7619 51.768 37.4419 51.928C37.1299 52.088 36.7499 52.168 36.3019 52.168ZM41.5002 52V43.24H42.6522V52H41.5002ZM40.6122 44.152V43.24H42.6522V44.152H40.6122ZM49.2123 52L46.8483 43.24H48.0603L50.1123 51.232L49.5483 50.944H50.9763L50.3523 51.232L52.0203 43.6H53.1243L51.2163 52H49.2123ZM54.4803 52L52.3803 43.6H53.5203L55.4043 51.232L54.8043 50.944H56.2443L55.6323 51.232L57.4683 43.24H58.6443L56.4963 52H54.4803ZM62.5389 52.216C61.9789 52.216 61.4949 52.12 61.0869 51.928C60.6789 51.736 60.3469 51.484 60.0909 51.172C59.8349 50.852 59.6429 50.496 59.5149 50.104C59.3949 49.712 59.3349 49.312 59.3349 48.904V48.688C59.3349 48.272 59.3949 47.868 59.5149 47.476C59.6429 47.084 59.8349 46.732 60.0909 46.42C60.3469 46.1 60.6709 45.848 61.0629 45.664C61.4629 45.472 61.9309 45.376 62.4669 45.376C63.1629 45.376 63.7349 45.528 64.1829 45.832C64.6389 46.128 64.9749 46.512 65.1909 46.984C65.4149 47.456 65.5269 47.96 65.5269 48.496V49.012H59.8389V48.148H64.6869L64.4229 48.616C64.4229 48.16 64.3509 47.768 64.2069 47.44C64.0629 47.104 63.8469 46.844 63.5589 46.66C63.2709 46.476 62.9069 46.384 62.4669 46.384C62.0109 46.384 61.6309 46.488 61.3269 46.696C61.0309 46.904 60.8069 47.188 60.6549 47.548C60.5109 47.908 60.4389 48.324 60.4389 48.796C60.4389 49.252 60.5109 49.664 60.6549 50.032C60.8069 50.392 61.0389 50.68 61.3509 50.896C61.6629 51.104 62.0589 51.208 62.5389 51.208C63.0429 51.208 63.4509 51.096 63.7629 50.872C64.0829 50.648 64.2749 50.388 64.3389 50.092H65.4189C65.3309 50.532 65.1549 50.912 64.8909 51.232C64.6269 51.552 64.2949 51.796 63.8949 51.964C63.4949 52.132 63.0429 52.216 62.5389 52.216ZM70.5466 52.216C70.0186 52.216 69.5466 52.1 69.1306 51.868C68.7226 51.636 68.3986 51.3 68.1586 50.86C67.9186 50.412 67.7866 49.876 67.7626 49.252H68.0746V52H67.1626V43.24H68.3146V47.5L67.9066 48.376C67.9386 47.68 68.0786 47.112 68.3266 46.672C68.5746 46.232 68.8986 45.908 69.2986 45.7C69.7066 45.484 70.1546 45.376 70.6426 45.376C71.0986 45.376 71.5146 45.464 71.8906 45.64C72.2666 45.808 72.5906 46.044 72.8626 46.348C73.1346 46.644 73.3426 46.992 73.4866 47.392C73.6306 47.784 73.7026 48.208 73.7026 48.664V48.88C73.7026 49.336 73.6266 49.764 73.4746 50.164C73.3306 50.564 73.1186 50.92 72.8386 51.232C72.5586 51.536 72.2226 51.776 71.8306 51.952C71.4466 52.128 71.0186 52.216 70.5466 52.216ZM70.4146 51.208C70.8466 51.208 71.2226 51.104 71.5426 50.896C71.8626 50.688 72.1106 50.404 72.2866 50.044C72.4626 49.676 72.5506 49.252 72.5506 48.772C72.5506 48.292 72.4586 47.872 72.2746 47.512C72.0986 47.152 71.8506 46.876 71.5306 46.684C71.2106 46.484 70.8386 46.384 70.4146 46.384C70.0306 46.384 69.6746 46.472 69.3466 46.648C69.0186 46.816 68.7546 47.064 68.5546 47.392C68.3626 47.712 68.2666 48.1 68.2666 48.556V49.108C68.2666 49.548 68.3666 49.924 68.5666 50.236C68.7666 50.548 69.0306 50.788 69.3586 50.956C69.6866 51.124 70.0386 51.208 70.4146 51.208ZM77.536 52.192C76.696 52.192 76.044 52.012 75.58 51.652C75.124 51.292 74.888 50.8 74.872 50.176H75.952C75.968 50.424 76.092 50.66 76.324 50.884C76.564 51.1 76.968 51.208 77.536 51.208C78.048 51.208 78.44 51.108 78.712 50.908C78.984 50.7 79.12 50.448 79.12 50.152C79.12 49.888 79.02 49.684 78.82 49.54C78.62 49.388 78.296 49.288 77.848 49.24L77.152 49.168C76.544 49.104 76.048 48.924 75.664 48.628C75.28 48.324 75.088 47.9 75.088 47.356C75.088 46.948 75.192 46.6 75.4 46.312C75.608 46.016 75.896 45.792 76.264 45.64C76.632 45.48 77.056 45.4 77.536 45.4C78.256 45.4 78.84 45.56 79.288 45.88C79.736 46.2 79.968 46.676 79.984 47.308H78.904C78.896 47.052 78.776 46.836 78.544 46.66C78.32 46.476 77.984 46.384 77.536 46.384C77.088 46.384 76.748 46.476 76.516 46.66C76.284 46.844 76.168 47.076 76.168 47.356C76.168 47.596 76.248 47.788 76.408 47.932C76.576 48.076 76.848 48.168 77.224 48.208L77.92 48.28C78.608 48.352 79.16 48.544 79.576 48.856C79.992 49.16 80.2 49.592 80.2 50.152C80.2 50.552 80.084 50.908 79.852 51.22C79.628 51.524 79.316 51.764 78.916 51.94C78.516 52.108 78.056 52.192 77.536 52.192ZM82.1816 52V45.592H83.3336V52H82.1816ZM81.1976 46.504V45.592H83.3336V46.504H81.1976ZM82.5056 44.56C82.2496 44.56 82.0576 44.492 81.9296 44.356C81.8096 44.22 81.7496 44.048 81.7496 43.84C81.7496 43.632 81.8096 43.46 81.9296 43.324C82.0576 43.188 82.2496 43.12 82.5056 43.12C82.7616 43.12 82.9496 43.188 83.0696 43.324C83.1976 43.46 83.2616 43.632 83.2616 43.84C83.2616 44.048 83.1976 44.22 83.0696 44.356C82.9496 44.492 82.7616 44.56 82.5056 44.56ZM88.057 52.072C87.577 52.072 87.161 52.004 86.809 51.868C86.465 51.732 86.197 51.5 86.005 51.172C85.821 50.836 85.729 50.384 85.729 49.816V43.648H86.833V49.96C86.833 50.304 86.925 50.572 87.109 50.764C87.301 50.948 87.569 51.04 87.913 51.04H89.041V52.072H88.057ZM84.625 46.456V45.592H89.041V46.456H84.625ZM93.3475 52.216C92.7875 52.216 92.3035 52.12 91.8955 51.928C91.4875 51.736 91.1555 51.484 90.8995 51.172C90.6435 50.852 90.4515 50.496 90.3235 50.104C90.2035 49.712 90.1435 49.312 90.1435 48.904V48.688C90.1435 48.272 90.2035 47.868 90.3235 47.476C90.4515 47.084 90.6435 46.732 90.8995 46.42C91.1555 46.1 91.4795 45.848 91.8715 45.664C92.2715 45.472 92.7395 45.376 93.2755 45.376C93.9715 45.376 94.5435 45.528 94.9915 45.832C95.4475 46.128 95.7835 46.512 95.9995 46.984C96.2235 47.456 96.3355 47.96 96.3355 48.496V49.012H90.6475V48.148H95.4955L95.2315 48.616C95.2315 48.16 95.1595 47.768 95.0155 47.44C94.8715 47.104 94.6555 46.844 94.3675 46.66C94.0795 46.476 93.7155 46.384 93.2755 46.384C92.8195 46.384 92.4395 46.488 92.1355 46.696C91.8395 46.904 91.6155 47.188 91.4635 47.548C91.3195 47.908 91.2475 48.324 91.2475 48.796C91.2475 49.252 91.3195 49.664 91.4635 50.032C91.6155 50.392 91.8475 50.68 92.1595 50.896C92.4715 51.104 92.8675 51.208 93.3475 51.208C93.8515 51.208 94.2595 51.096 94.5715 50.872C94.8915 50.648 95.0835 50.388 95.1475 50.092H96.2275C96.1395 50.532 95.9635 50.912 95.6995 51.232C95.4355 51.552 95.1035 51.796 94.7035 51.964C94.3035 52.132 93.8515 52.216 93.3475 52.216Z" fill="#A29F9F"/>
<path d="M62.2229 12.6C62.2229 12.6 62.2229 12.6 62.2229 12.5271C61.1954 9.7216 59.3309 7.29939 56.8817 5.58815C54.4326 3.87692 51.5169 2.95923 48.5292 2.95923C45.5414 2.95923 42.6257 3.87692 40.1766 5.58815C37.7274 7.29939 35.8629 9.7216 34.8354 12.5271C34.8354 12.5271 34.8354 12.5271 34.8354 12.6C33.6879 15.7659 33.6879 19.2341 34.8354 22.4C34.8354 22.4 34.8354 22.4 34.8354 22.4729C35.8629 25.2784 37.7274 27.7006 40.1766 29.4119C42.6257 31.1231 45.5414 32.0408 48.5292 32.0408C51.5169 32.0408 54.4326 31.1231 56.8817 29.4119C59.3309 27.7006 61.1954 25.2784 62.2229 22.4729C62.2229 22.4729 62.2229 22.4729 62.2229 22.4C63.3704 19.2341 63.3704 15.7659 62.2229 12.6V12.6ZM37.2125 20.4167C36.7068 18.5051 36.7068 16.4949 37.2125 14.5834H39.925C39.6917 16.5208 39.6917 18.4792 39.925 20.4167H37.2125ZM38.4083 23.3334H40.45C40.7923 24.634 41.2816 25.8914 41.9083 27.0813C40.4781 26.107 39.2826 24.8268 38.4083 23.3334ZM40.45 11.6667H38.4083C39.27 10.1779 40.4503 8.89799 41.8646 7.91877C41.2529 9.11058 40.7783 10.3679 40.45 11.6667V11.6667ZM47.0417 28.7292C45.2505 27.4148 43.9925 25.4993 43.4979 23.3334H47.0417V28.7292ZM47.0417 20.4167H42.8708C42.5987 18.4818 42.5987 16.5183 42.8708 14.5834H47.0417V20.4167ZM47.0417 11.6667H43.4979C43.9925 9.50072 45.2505 7.58528 47.0417 6.27085V11.6667ZM58.5917 11.6667H56.55C56.2077 10.3661 55.7184 9.10868 55.0917 7.91877C56.5218 8.89304 57.7174 10.1733 58.5917 11.6667ZM49.9583 6.27085C51.7495 7.58528 53.0075 9.50072 53.5021 11.6667H49.9583V6.27085ZM49.9583 28.7292V23.3334H53.5021C53.0075 25.4993 51.7495 27.4148 49.9583 28.7292V28.7292ZM54.1292 20.4167H49.9583V14.5834H54.1292C54.4013 16.5183 54.4013 18.4818 54.1292 20.4167ZM55.1354 27.0813C55.7622 25.8914 56.2514 24.634 56.5937 23.3334H58.6354C57.7611 24.8268 56.5656 26.107 55.1354 27.0813ZM59.7875 20.4167H57.075C57.1936 19.449 57.252 18.4749 57.25 17.5C57.2516 16.5251 57.1932 15.5511 57.075 14.5834H59.7875C60.2932 16.4949 60.2932 18.5051 59.7875 20.4167Z" fill="#BA2626"/>
</svg>
